<svg xmlns="http://www.w3.org/2000/svg" viewBox="0 0 990 680"><style>text{font:12px Arial}.q{font-size:18px}.p{font-size:16px}.c{fill:none;stroke-width:2}.d{stroke-dasharray:7 5}.a{stroke:#777}</style><rect width="990" height="680" fill="white"/><text x="495" y="24" text-anchor="middle" class="q">Sensitivity to r</text><path d="M120 52h28" stroke="#1677b3" stroke-width="3"/><text x="154" y="56">r=.005</text><path d="M370 52h28" stroke="#e67e22" stroke-width="3"/><text x="404" y="56">Baseline</text><path d="M620 52h28" stroke="#2a9d55" stroke-width="3"/><text x="654" y="56">r=.025</text><text x="255" y="77" text-anchor="middle" class="p">PCMV</text><path d="M45 85v235h420" fill="none" class="a"/><text x="45" y="336">0</text><text x="457" y="336">40</text><text x="20" y="93">1</text><text x="20" y="320">0</text><polyline points="45,94 66,94 87,94 108,94 129,94 150,95 171,99 192,105 213,114 234,126 255,138 276,150 297,163 318,175 339,186 360,196 381,206 402,217 423,225 444,234" class="c" stroke="#1677b3"/><polyline points="45,94 66,94 87,94 108,94 129,94 150,94 171,94 192,94 213,94 234,94 255,94 276,94 297,94 318,94 339,94 360,95 381,95 402,95 423,95 444,95" class="c d" stroke="#1677b3"/><polyline points="45,94 66,94 87,94 108,94 129,96 150,103 171,116 192,130 213,144 234,158 255,170 276,181 297,191 318,201 339,209 360,218 381,224 402,231 423,238 444,244" class="c" stroke="#e67e22"/><polyline points="45,94 66,94 87,94 108,94 129,94 150,94 171,94 192,94 213,95 234,97 255,99 276,104 297,109 318,116 339,123 360,131 381,140 402,148 423,157 444,165" class="c d" stroke="#e67e22"/><polyline points="45,94 66,94 87,94 108,103 129,119 150,137 171,157 192,174 213,189 234,200 255,211 276,219 297,226 318,231 339,238 360,243 381,247 402,251 423,254 444,258" class="c" stroke="#2a9d55"/><polyline points="45,94 66,94 87,94 108,94 129,95 150,101 171,111 192,124 213,138 234,151 255,164 276,175 297,186 318,196 339,204 360,212 381,220 402,226 423,232 444,238" class="c d" stroke="#2a9d55"/><text x="730" y="77" text-anchor="middle" class="p">DOMV</text><path d="M520 85v235h420" fill="none" class="a"/><text x="520" y="336">0</text><text x="932" y="336">40</text><text x="495" y="93">1</text><text x="495" y="320">0</text><polyline points="520,94 541,94 562,94 583,94 604,94 625,96 646,100 667,108 688,119 709,132 730,147 751,160 772,174 793,187 814,201 835,213 856,226 877,238 898,250 919,261" class="c" stroke="#1677b3"/><polyline points="520,94 541,94 562,94 583,94 604,94 625,94 646,94 667,94 688,94 709,94 730,97 751,103 772,115 793,133 814,156 835,180 856,203 877,224 898,242 919,257" class="c d" stroke="#1677b3"/><polyline points="520,94 541,94 562,94 583,96 604,102 625,114 646,132 667,148 688,167 709,183 730,197 751,209 772,219 793,230 814,239 835,246 856,254 877,262 898,268 919,275" class="c" stroke="#e67e22"/><polyline points="520,94 541,94 562,94 583,94 604,94 625,94 646,95 667,98 688,107 709,122 730,141 751,162 772,183 793,203 814,220 835,234 856,247 877,257 898,266 919,274" class="c d" stroke="#e67e22"/><polyline points="520,94 541,106 562,123 583,142 604,164 625,185 646,205 667,220 688,232 709,242 730,250 751,257 772,262 793,266 814,272 835,276 856,278 877,283 898,285 919,288" class="c" stroke="#2a9d55"/><polyline points="520,94 541,94 562,94 583,95 604,106 625,132 646,160 667,185 688,205 709,222 730,235 751,246 772,255 793,262 814,268 835,274 856,278 877,282 898,286 919,289" class="c d" stroke="#2a9d55"/><text x="255" y="382" text-anchor="middle" class="p">cTCMV</text><path d="M45 390v235h420" fill="none" class="a"/><text x="45" y="641">0</text><text x="457" y="641">40</text><text x="20" y="398">1</text><text x="20" y="625">0</text><polyline points="45,399 66,399 87,399 108,399 129,400 150,406 171,418 192,431 213,445 234,458 255,470 276,481 297,491 318,500 339,509 360,516 381,523 402,529 423,535 444,540" class="c" stroke="#1677b3"/><polyline points="45,399 66,399 87,399 108,399 129,399 150,401 171,406 192,416 213,429 234,444 255,458 276,472 297,484 318,495 339,505 360,514 381,521 402,528 423,534 444,540" class="c d" stroke="#1677b3"/><polyline points="45,399 66,399 87,399 108,400 129,408 150,425 171,449 192,469 213,485 234,498 255,508 276,519 297,525 318,533 339,539 360,544 381,549 402,553 423,557 444,560" class="c" stroke="#e67e22"/><polyline points="45,399 66,399 87,399 108,399 129,405 150,420 171,439 192,459 213,476 234,491 255,504 276,514 297,523 318,531 339,537 360,543 381,548 402,552 423,556 444,559" class="c d" stroke="#e67e22"/><polyline points="45,399 66,399 87,401 108,432 129,467 150,490 171,506 192,519 213,530 234,540 255,548 276,554 297,559 318,564 339,568 360,572 381,575 402,577 423,578 444,580" class="c" stroke="#2a9d55"/><polyline points="45,399 66,399 87,400 108,423 129,458 150,487 171,508 192,523 213,534 234,543 255,550 276,556 297,560 318,564 339,568 360,571 381,573 402,576 423,578 444,579" class="c d" stroke="#2a9d55"/><text x="730" y="382" text-anchor="middle" class="p">dTCMV</text><path d="M520 390v235h420" fill="none" class="a"/><text x="520" y="641">0</text><text x="932" y="641">40</text><text x="495" y="398">1</text><text x="495" y="625">0</text><polyline points="520,399 541,405 562,464 583,482 604,491 625,500 646,507 667,513 688,518 709,521 730,524 751,525 772,525 793,522 814,509 835,495 856,483 877,459 898,424 919,399" class="c" stroke="#1677b3"/><polyline points="520,399 541,399 562,401 583,424 604,449 625,467 646,478 667,484 688,487 709,487 730,486 751,482 772,476 793,469 814,460 835,448 856,433 877,416 898,400 919,399" class="c d" stroke="#1677b3"/><polyline points="520,399 541,437 562,478 583,510 604,531 625,543 646,550 667,526 688,527 709,529 730,531 751,531 772,530 793,529 814,524 835,506 856,495 877,479 898,455 919,422" class="c" stroke="#e67e22"/><polyline points="520,399 541,399 562,428 583,467 604,488 625,499 646,505 667,508 688,508 709,507 730,504 751,500 772,495 793,488 814,480 835,470 856,459 877,446 898,431 919,413" class="c d" stroke="#e67e22"/><polyline points="520,399 541,491 562,499 583,537 604,557 625,564 646,566 667,566 688,561 709,550 730,543 751,541 772,539 793,537 814,533 835,526 856,511 877,500 898,486 919,467" class="c" stroke="#2a9d55"/><polyline points="520,399 541,404 562,471 583,505 604,520 625,527 646,531 667,532 688,532 709,531 730,528 751,525 772,521 793,515 814,509 835,502 856,494 877,485 898,475 919,463" class="c d" stroke="#2a9d55"/><path d="M330 660h35" stroke="#111" stroke-width="2"/><text x="372" y="664">Strict</text><path d="M520 660h35" stroke="#111" stroke-width="2" stroke-dasharray="7 5"/><text x="562" y="664">Clip</text></svg>