<svg xmlns="http://www.w3.org/2000/svg" width="1100" height="920" viewBox="0 0 1100 920">
<style>text{font-family:Arial,sans-serif;fill:#111}.title{font-size:23px;font-weight:600}.ptitle{font-size:19px}.axislabel{font-size:13px}.tick{font-size:11px}.legend{font-size:13px}.grid{stroke:#d9d9d9;stroke-width:1}.axis{stroke:#222;stroke-width:1.2}.curve{fill:none;stroke-width:2}.clip{stroke-dasharray:8 6}</style>
<rect width="1100" height="920" fill="white"/>
<text x="550.0" y="35" text-anchor="middle" class="title">Sensitivity to D_T</text>
<line x1="340.0" y1="72" x2="375.0" y2="72" stroke="#1f77b4" stroke-width="3"/>
<text x="384.0" y="77" class="legend">Baseline D_T=0</text>
<line x1="550.0" y1="72" x2="585.0" y2="72" stroke="#ff7f0e" stroke-width="3"/>
<text x="594.0" y="77" class="legend">D_T=safe-asset FV=54.54</text>
<text x="290.0" y="132" text-anchor="middle" class="ptitle">PCMV</text>
<line x1="80" y1="400.0" x2="500" y2="400.0" class="grid"/><text x="71" y="404.0" text-anchor="end" class="tick">0.0</text>
<line x1="80" y1="351.9" x2="500" y2="351.9" class="grid"/><text x="71" y="355.9" text-anchor="end" class="tick">0.2</text>
<line x1="80" y1="303.8" x2="500" y2="303.8" class="grid"/><text x="71" y="307.8" text-anchor="end" class="tick">0.4</text>
<line x1="80" y1="255.8" x2="500" y2="255.8" class="grid"/><text x="71" y="259.8" text-anchor="end" class="tick">0.6</text>
<line x1="80" y1="207.7" x2="500" y2="207.7" class="grid"/><text x="71" y="211.7" text-anchor="end" class="tick">0.8</text>
<line x1="80" y1="159.6" x2="500" y2="159.6" class="grid"/><text x="71" y="163.6" text-anchor="end" class="tick">1.0</text>
<line x1="80.0" y1="150" x2="80.0" y2="400" class="grid"/><text x="80.0" y="419" text-anchor="middle" class="tick">0</text>
<line x1="185.0" y1="150" x2="185.0" y2="400" class="grid"/><text x="185.0" y="419" text-anchor="middle" class="tick">10</text>
<line x1="290.0" y1="150" x2="290.0" y2="400" class="grid"/><text x="290.0" y="419" text-anchor="middle" class="tick">20</text>
<line x1="395.0" y1="150" x2="395.0" y2="400" class="grid"/><text x="395.0" y="419" text-anchor="middle" class="tick">30</text>
<line x1="500.0" y1="150" x2="500.0" y2="400" class="grid"/><text x="500.0" y="419" text-anchor="middle" class="tick">40</text>
<line x1="80" y1="400" x2="500" y2="400" class="axis"/><line x1="80" y1="150" x2="80" y2="400" class="axis"/>
<text x="290.0" y="442" text-anchor="middle" class="axislabel">Years since entry</text><text x="25" y="275.0" transform="rotate(-90 25 275.0)" text-anchor="middle" class="axislabel">Mass-weighted risky proportion</text>
<polyline points="80.0,159.6 90.5,159.6 101.0,159.6 111.5,159.6 122.0,159.6 132.5,159.6 143.0,159.7 153.5,160.2 164.0,161.9 174.5,165.4 185.0,169.5 195.5,176.6 206.0,183.5 216.5,190.0 227.0,197.7 237.5,206.2 248.0,212.6 258.5,220.2 269.0,227.4 279.5,233.9 290.0,240.1 300.5,246.5 311.0,252.1 321.5,257.3 332.0,262.4 342.5,268.3 353.0,273.3 363.5,278.3 374.0,282.4 384.5,286.6 395.0,291.6 405.5,294.9 416.0,298.1 426.5,302.6 437.0,305.6 447.5,308.6 458.0,312.5 468.5,315.4 479.0,319.4 489.5,321.9 494.8,324.0" class="curve" stroke="#1f77b4"/>
<polyline points="80.0,159.6 90.5,159.6 101.0,159.6 111.5,159.6 122.0,159.6 132.5,159.6 143.0,159.6 153.5,159.6 164.0,159.6 174.5,159.6 185.0,159.6 195.5,159.6 206.0,159.6 216.5,159.7 227.0,159.8 237.5,160.1 248.0,160.6 258.5,161.2 269.0,162.3 279.5,163.6 290.0,165.3 300.5,167.3 311.0,169.8 321.5,172.5 332.0,175.6 342.5,179.0 353.0,182.7 363.5,186.5 374.0,190.6 384.5,194.8 395.0,199.2 405.5,203.6 416.0,208.1 426.5,212.7 437.0,217.3 447.5,221.9 458.0,226.5 468.5,231.1 479.0,235.6 489.5,240.1 494.8,242.3" class="curve clip" stroke="#1f77b4"/>
<polyline points="80.0,159.6 90.5,159.6 101.0,159.6 111.5,159.6 122.0,159.6 132.5,159.6 143.0,159.7 153.5,160.1 164.0,161.4 174.5,164.4 185.0,169.1 195.5,174.1 206.0,181.0 216.5,189.4 227.0,195.8 237.5,204.4 248.0,211.3 258.5,218.5 269.0,225.1 279.5,232.4 290.0,238.1 300.5,245.3 311.0,251.1 321.5,256.4 332.0,262.0 342.5,267.7 353.0,273.0 363.5,277.6 374.0,283.0 384.5,286.9 395.0,291.2 405.5,295.9 416.0,299.5 426.5,302.8 437.0,307.1 447.5,310.0 458.0,312.9 468.5,317.2 479.0,319.6 489.5,324.3 494.8,324.6" class="curve" stroke="#ff7f0e"/>
<polyline points="80.0,159.6 90.5,159.6 101.0,159.6 111.5,159.6 122.0,159.6 132.5,159.6 143.0,159.6 153.5,159.6 164.0,159.6 174.5,159.6 185.0,159.6 195.5,159.6 206.0,159.6 216.5,159.7 227.0,159.8 237.5,160.1 248.0,160.6 258.5,161.2 269.0,162.3 279.5,163.6 290.0,165.3 300.5,167.3 311.0,169.8 321.5,172.5 332.0,175.6 342.5,179.0 353.0,182.6 363.5,186.5 374.0,190.5 384.5,194.7 395.0,199.1 405.5,203.5 416.0,208.1 426.5,212.6 437.0,217.2 447.5,221.8 458.0,226.4 468.5,231.0 479.0,235.5 489.5,240.0 494.8,242.2" class="curve clip" stroke="#ff7f0e"/>
<text x="820.0" y="132" text-anchor="middle" class="ptitle">DOMV</text>
<line x1="610" y1="400.0" x2="1030" y2="400.0" class="grid"/><text x="601" y="404.0" text-anchor="end" class="tick">0.0</text>
<line x1="610" y1="351.9" x2="1030" y2="351.9" class="grid"/><text x="601" y="355.9" text-anchor="end" class="tick">0.2</text>
<line x1="610" y1="303.8" x2="1030" y2="303.8" class="grid"/><text x="601" y="307.8" text-anchor="end" class="tick">0.4</text>
<line x1="610" y1="255.8" x2="1030" y2="255.8" class="grid"/><text x="601" y="259.8" text-anchor="end" class="tick">0.6</text>
<line x1="610" y1="207.7" x2="1030" y2="207.7" class="grid"/><text x="601" y="211.7" text-anchor="end" class="tick">0.8</text>
<line x1="610" y1="159.6" x2="1030" y2="159.6" class="grid"/><text x="601" y="163.6" text-anchor="end" class="tick">1.0</text>
<line x1="610.0" y1="150" x2="610.0" y2="400" class="grid"/><text x="610.0" y="419" text-anchor="middle" class="tick">0</text>
<line x1="715.0" y1="150" x2="715.0" y2="400" class="grid"/><text x="715.0" y="419" text-anchor="middle" class="tick">10</text>
<line x1="820.0" y1="150" x2="820.0" y2="400" class="grid"/><text x="820.0" y="419" text-anchor="middle" class="tick">20</text>
<line x1="925.0" y1="150" x2="925.0" y2="400" class="grid"/><text x="925.0" y="419" text-anchor="middle" class="tick">30</text>
<line x1="1030.0" y1="150" x2="1030.0" y2="400" class="grid"/><text x="1030.0" y="419" text-anchor="middle" class="tick">40</text>
<line x1="610" y1="400" x2="1030" y2="400" class="axis"/><line x1="610" y1="150" x2="610" y2="400" class="axis"/><text x="820.0" y="442" text-anchor="middle" class="axislabel">Years since entry</text>
<polyline points="610.0,159.6 620.5,159.6 631.0,159.6 641.5,159.6 652.0,159.6 662.5,160.1 673.0,161.4 683.5,164.5 694.0,168.2 704.5,173.9 715.0,180.6 725.5,190.2 736.0,199.6 746.5,208.4 757.0,217.5 767.5,229.5 778.0,237.6 788.5,246.7 799.0,254.0 809.5,262.0 820.0,269.5 830.5,275.8 841.0,281.6 851.5,286.8 862.0,292.8 872.5,298.4 883.0,304.0 893.5,308.8 904.0,313.6 914.5,317.7 925.0,321.6 935.5,326.4 946.0,329.8 956.5,334.3 967.0,338.3 977.5,341.7 988.0,345.1 998.5,348.5 1009.0,352.3 1019.5,354.7 1024.8,356.8" class="curve" stroke="#1f77b4"/>
<polyline points="610.0,159.6 620.5,159.6 631.0,159.6 641.5,159.6 652.0,159.6 662.5,159.6 673.0,159.6 683.5,159.6 694.0,159.6 704.5,159.6 715.0,159.6 725.5,159.8 736.0,160.2 746.5,161.4 757.0,163.8 767.5,167.6 778.0,173.2 788.5,180.5 799.0,189.2 809.5,199.2 820.0,209.8 830.5,221.1 841.0,232.4 851.5,243.8 862.0,254.7 872.5,265.3 883.0,275.2 893.5,284.6 904.0,293.4 914.5,301.5 925.0,309.0 935.5,315.9 946.0,322.3 956.5,328.1 967.0,333.5 977.5,338.3 988.0,342.8 998.5,346.9 1009.0,350.6 1019.5,354.1 1024.8,355.7" class="curve clip" stroke="#1f77b4"/>
<polyline points="610.0,159.6 620.5,159.6 631.0,159.6 641.5,159.6 652.0,159.7 662.5,159.9 673.0,160.6 683.5,162.8 694.0,167.0 704.5,172.5 715.0,181.4 725.5,188.8 736.0,198.8 746.5,210.5 757.0,219.6 767.5,229.2 778.0,237.6 788.5,246.3 799.0,252.8 809.5,262.4 820.0,268.9 830.5,274.7 841.0,281.9 851.5,287.7 862.0,293.2 872.5,298.6 883.0,304.0 893.5,308.6 904.0,312.6 914.5,317.3 925.0,321.5 935.5,325.7 946.0,329.6 956.5,333.4 967.0,337.2 977.5,340.2 988.0,344.0 998.5,347.2 1009.0,349.9 1019.5,354.1 1024.8,354.6" class="curve" stroke="#ff7f0e"/>
<polyline points="610.0,159.6 620.5,159.6 631.0,159.6 641.5,159.6 652.0,159.6 662.5,159.6 673.0,159.6 683.5,159.6 694.0,159.6 704.5,159.6 715.0,159.6 725.5,159.8 736.0,160.2 746.5,161.4 757.0,163.8 767.5,167.6 778.0,173.2 788.5,180.5 799.0,189.2 809.5,199.2 820.0,209.8 830.5,221.1 841.0,232.4 851.5,243.8 862.0,254.7 872.5,265.3 883.0,275.2 893.5,284.6 904.0,293.4 914.5,301.5 925.0,309.0 935.5,315.9 946.0,322.3 956.5,328.1 967.0,333.5 977.5,338.3 988.0,342.8 998.5,346.9 1009.0,350.6 1019.5,354.1 1024.8,355.7" class="curve clip" stroke="#ff7f0e"/>
<text x="290.0" y="502" text-anchor="middle" class="ptitle">cTCMV</text>
<line x1="80" y1="770.0" x2="500" y2="770.0" class="grid"/><text x="71" y="774.0" text-anchor="end" class="tick">0.0</text>
<line x1="80" y1="721.9" x2="500" y2="721.9" class="grid"/><text x="71" y="725.9" text-anchor="end" class="tick">0.2</text>
<line x1="80" y1="673.8" x2="500" y2="673.8" class="grid"/><text x="71" y="677.8" text-anchor="end" class="tick">0.4</text>
<line x1="80" y1="625.8" x2="500" y2="625.8" class="grid"/><text x="71" y="629.8" text-anchor="end" class="tick">0.6</text>
<line x1="80" y1="577.7" x2="500" y2="577.7" class="grid"/><text x="71" y="581.7" text-anchor="end" class="tick">0.8</text>
<line x1="80" y1="529.6" x2="500" y2="529.6" class="grid"/><text x="71" y="533.6" text-anchor="end" class="tick">1.0</text>
<line x1="80.0" y1="520" x2="80.0" y2="770" class="grid"/><text x="80.0" y="789" text-anchor="middle" class="tick">0</text>
<line x1="185.0" y1="520" x2="185.0" y2="770" class="grid"/><text x="185.0" y="789" text-anchor="middle" class="tick">10</text>
<line x1="290.0" y1="520" x2="290.0" y2="770" class="grid"/><text x="290.0" y="789" text-anchor="middle" class="tick">20</text>
<line x1="395.0" y1="520" x2="395.0" y2="770" class="grid"/><text x="395.0" y="789" text-anchor="middle" class="tick">30</text>
<line x1="500.0" y1="520" x2="500.0" y2="770" class="grid"/><text x="500.0" y="789" text-anchor="middle" class="tick">40</text>
<line x1="80" y1="770" x2="500" y2="770" class="axis"/><line x1="80" y1="520" x2="80" y2="770" class="axis"/><text x="290.0" y="812" text-anchor="middle" class="axislabel">Years since entry</text><text x="25" y="645.0" transform="rotate(-90 25 645.0)" text-anchor="middle" class="axislabel">Mass-weighted risky proportion</text>
<polyline points="80.0,529.6 90.5,529.6 101.0,529.6 111.5,529.6 122.0,529.6 132.5,529.6 143.0,530.2 153.5,533.2 164.0,538.9 174.5,548.3 185.0,557.1 195.5,570.2 206.0,583.0 216.5,593.0 227.0,603.9 237.5,612.0 248.0,620.9 258.5,629.3 269.0,634.6 279.5,641.5 290.0,646.0 300.5,651.7 311.0,656.7 321.5,660.4 332.0,663.9 342.5,668.1 353.0,671.9 363.5,675.2 374.0,678.4 384.5,681.3 395.0,684.2 405.5,686.9 416.0,689.3 426.5,691.6 437.0,693.6 447.5,695.5 458.0,697.4 468.5,699.0 479.0,700.5 489.5,701.9 494.8,702.6" class="curve" stroke="#1f77b4"/>
<polyline points="80.0,529.6 90.5,529.6 101.0,529.6 111.5,529.6 122.0,529.6 132.5,529.6 143.0,529.9 153.5,531.6 164.0,535.8 174.5,542.8 185.0,551.8 195.5,562.0 206.0,572.6 216.5,583.3 227.0,593.5 237.5,603.0 248.0,611.8 258.5,620.0 269.0,627.5 279.5,634.5 290.0,640.8 300.5,646.6 311.0,652.0 321.5,656.9 332.0,661.5 342.5,665.7 353.0,669.6 363.5,673.2 374.0,676.5 384.5,679.6 395.0,682.5 405.5,685.3 416.0,687.8 426.5,690.2 437.0,692.4 447.5,694.5 458.0,696.5 468.5,698.3 479.0,700.1 489.5,701.8 494.8,702.6" class="curve clip" stroke="#1f77b4"/>
<polyline points="80.0,529.6 90.5,529.6 101.0,529.6 111.5,529.6 122.0,529.6 132.5,529.6 143.0,530.2 153.5,533.2 164.0,538.9 174.5,548.3 185.0,557.1 195.5,570.2 206.0,583.0 216.5,593.0 227.0,603.9 237.5,612.0 248.0,620.9 258.5,629.3 269.0,634.6 279.5,641.5 290.0,646.0 300.5,651.7 311.0,656.7 321.5,660.4 332.0,663.9 342.5,668.1 353.0,671.9 363.5,675.2 374.0,678.4 384.5,681.3 395.0,684.2 405.5,686.9 416.0,689.3 426.5,691.6 437.0,693.6 447.5,695.5 458.0,697.4 468.5,699.0 479.0,700.5 489.5,701.9 494.8,702.6" class="curve" stroke="#ff7f0e"/>
<polyline points="80.0,529.6 90.5,529.6 101.0,529.6 111.5,529.6 122.0,529.6 132.5,529.6 143.0,529.9 153.5,531.6 164.0,535.8 174.5,542.8 185.0,551.8 195.5,562.0 206.0,572.6 216.5,583.3 227.0,593.5 237.5,603.0 248.0,611.8 258.5,620.0 269.0,627.5 279.5,634.5 290.0,640.8 300.5,646.6 311.0,652.0 321.5,656.9 332.0,661.5 342.5,665.7 353.0,669.6 363.5,673.2 374.0,676.5 384.5,679.6 395.0,682.5 405.5,685.3 416.0,687.8 426.5,690.2 437.0,692.4 447.5,694.5 458.0,696.5 468.5,698.3 479.0,700.1 489.5,701.8 494.8,702.6" class="curve clip" stroke="#ff7f0e"/>
<text x="820.0" y="502" text-anchor="middle" class="ptitle">dTCMV</text>
<line x1="610" y1="770.0" x2="1030" y2="770.0" class="grid"/><text x="601" y="774.0" text-anchor="end" class="tick">0.0</text>
<line x1="610" y1="721.9" x2="1030" y2="721.9" class="grid"/><text x="601" y="725.9" text-anchor="end" class="tick">0.2</text>
<line x1="610" y1="673.8" x2="1030" y2="673.8" class="grid"/><text x="601" y="677.8" text-anchor="end" class="tick">0.4</text>
<line x1="610" y1="625.8" x2="1030" y2="625.8" class="grid"/><text x="601" y="629.8" text-anchor="end" class="tick">0.6</text>
<line x1="610" y1="577.7" x2="1030" y2="577.7" class="grid"/><text x="601" y="581.7" text-anchor="end" class="tick">0.8</text>
<line x1="610" y1="529.6" x2="1030" y2="529.6" class="grid"/><text x="601" y="533.6" text-anchor="end" class="tick">1.0</text>
<line x1="610.0" y1="520" x2="610.0" y2="770" class="grid"/><text x="610.0" y="789" text-anchor="middle" class="tick">0</text>
<line x1="715.0" y1="520" x2="715.0" y2="770" class="grid"/><text x="715.0" y="789" text-anchor="middle" class="tick">10</text>
<line x1="820.0" y1="520" x2="820.0" y2="770" class="grid"/><text x="820.0" y="789" text-anchor="middle" class="tick">20</text>
<line x1="925.0" y1="520" x2="925.0" y2="770" class="grid"/><text x="925.0" y="789" text-anchor="middle" class="tick">30</text>
<line x1="1030.0" y1="520" x2="1030.0" y2="770" class="grid"/><text x="1030.0" y="789" text-anchor="middle" class="tick">40</text>
<line x1="610" y1="770" x2="1030" y2="770" class="axis"/><line x1="610" y1="520" x2="610" y2="770" class="axis"/><text x="820.0" y="812" text-anchor="middle" class="axislabel">Years since entry</text>
<polyline points="610.0,529.6 620.5,529.6 631.0,570.1 641.5,595.9 652.0,613.5 662.5,632.1 673.0,647.6 683.5,662.9 694.0,670.5 704.5,671.4 715.0,682.4 725.5,685.3 736.0,690.7 746.5,689.4 757.0,664.6 767.5,665.0 778.0,666.0 788.5,667.0 799.0,668.2 809.5,668.9 820.0,669.6 830.5,669.9 841.0,670.0 851.5,669.8 862.0,669.4 872.5,668.6 883.0,667.4 893.5,665.5 904.0,662.3 914.5,649.9 925.0,643.0 935.5,637.3 946.0,631.7 956.5,624.9 967.0,614.6 977.5,604.5 988.0,589.4 998.5,574.6 1009.0,553.8 1019.5,529.6 1024.8,529.6" class="curve" stroke="#1f77b4"/>
<polyline points="610.0,529.6 620.5,529.6 631.0,529.7 641.5,536.5 652.0,560.8 662.5,584.2 673.0,602.3 683.5,615.1 694.0,624.5 704.5,631.3 715.0,636.4 725.5,640.0 736.0,642.6 746.5,644.4 757.0,645.5 767.5,646.0 778.0,645.9 788.5,645.5 799.0,644.5 809.5,643.2 820.0,641.6 830.5,639.6 841.0,637.2 851.5,634.5 862.0,631.5 872.5,628.1 883.0,624.4 893.5,620.3 904.0,615.8 914.5,610.9 925.0,605.6 935.5,599.9 946.0,593.7 956.5,586.9 967.0,579.6 977.5,571.8 988.0,563.3 998.5,554.0 1009.0,544.0 1019.5,533.3 1024.8,529.6" class="curve clip" stroke="#1f77b4"/>
<polyline points="610.0,529.6 620.5,529.6 631.0,531.2 641.5,562.5 652.0,580.7 662.5,587.0 673.0,588.4 683.5,599.3 694.0,609.2 704.5,617.1 715.0,625.0 725.5,631.6 736.0,636.3 746.5,639.5 757.0,642.7 767.5,644.9 778.0,646.8 788.5,647.0 799.0,647.5 809.5,646.2 820.0,640.7 830.5,637.7 841.0,634.7 851.5,631.3 862.0,625.5 872.5,617.6 883.0,609.0 893.5,597.9 904.0,586.6 914.5,574.6 925.0,566.3 935.5,558.4 946.0,546.0 956.5,536.7 967.0,530.8 977.5,529.6 988.0,529.6 998.5,529.6 1009.0,529.6 1019.5,529.6 1024.8,529.6" class="curve" stroke="#ff7f0e"/>
<polyline points="610.0,529.6 620.5,529.6 631.0,529.6 641.5,529.6 652.0,529.7 662.5,530.2 673.0,532.1 683.5,535.3 694.0,539.5 704.5,544.0 715.0,548.1 725.5,551.7 736.0,554.6 746.5,556.9 757.0,558.7 767.5,559.9 778.0,560.6 788.5,560.9 799.0,560.8 809.5,560.2 820.0,559.3 830.5,558.1 841.0,556.7 851.5,555.0 862.0,553.1 872.5,551.0 883.0,548.7 893.5,546.4 904.0,544.1 914.5,541.7 925.0,539.3 935.5,537.1 946.0,535.1 956.5,533.3 967.0,531.8 977.5,530.6 988.0,529.9 998.5,529.6 1009.0,529.6 1019.5,529.6 1024.8,529.6" class="curve clip" stroke="#ff7f0e"/>
<line x1="345" y1="890" x2="390" y2="890" stroke="#111" stroke-width="2.5"/>
<text x="400" y="895" class="legend">Strict constrained</text>
<line x1="595" y1="890" x2="640" y2="890" stroke="#111" stroke-width="2.5" stroke-dasharray="8 6"/>
<text x="650" y="895" class="legend">Clipped unconstrained</text>
</svg>
