<svg xmlns="http://www.w3.org/2000/svg" viewBox="0 0 990 680"><style>text{font:12px Arial}.q{font-size:18px}.p{font-size:16px}.c{fill:none;stroke-width:2}.d{stroke-dasharray:7 5}.a{stroke:#777}</style><rect width="990" height="680" fill="white"/><text x="495" y="24" text-anchor="middle" class="q">Sensitivity to mu</text><path d="M120 52h28" stroke="#1677b3" stroke-width="3"/><text x="154" y="56">mu=.045</text><path d="M370 52h28" stroke="#e67e22" stroke-width="3"/><text x="404" y="56">Baseline</text><path d="M620 52h28" stroke="#2a9d55" stroke-width="3"/><text x="654" y="56">mu=.065</text><text x="255" y="77" text-anchor="middle" class="p">PCMV</text><path d="M45 85v235h420" fill="none" class="a"/><text x="45" y="336">0</text><text x="457" y="336">40</text><text x="20" y="93">1</text><text x="20" y="320">0</text><polyline points="45,94 66,94 87,94 108,97 129,107 150,120 171,134 192,152 213,165 234,178 255,190 276,199 297,208 318,215 339,222 360,228 381,233 402,239 423,243 444,248" class="c" stroke="#1677b3"/><polyline points="45,94 66,94 87,94 108,94 129,94 150,95 171,99 192,106 213,116 234,126 255,138 276,149 297,160 318,170 339,180 360,189 381,198 402,205 423,213 444,219" class="c d" stroke="#1677b3"/><polyline points="45,94 66,94 87,94 108,94 129,96 150,103 171,116 192,130 213,144 234,158 255,170 276,181 297,191 318,201 339,209 360,218 381,224 402,231 423,238 444,244" class="c" stroke="#e67e22"/><polyline points="45,94 66,94 87,94 108,94 129,94 150,94 171,94 192,94 213,95 234,97 255,99 276,104 297,109 318,116 339,123 360,131 381,140 402,148 423,157 444,165" class="c d" stroke="#e67e22"/><polyline points="45,94 66,94 87,94 108,94 129,95 150,98 171,105 192,115 213,127 234,141 255,154 276,167 297,180 318,191 339,201 360,211 381,221 402,228 423,237 444,246" class="c" stroke="#2a9d55"/><polyline points="45,94 66,94 87,94 108,94 129,94 150,94 171,94 192,94 213,94 234,94 255,94 276,94 297,94 318,95 339,96 360,96 381,97 402,97 423,97 444,96" class="c d" stroke="#2a9d55"/><text x="730" y="77" text-anchor="middle" class="p">DOMV</text><path d="M520 85v235h420" fill="none" class="a"/><text x="520" y="336">0</text><text x="932" y="336">40</text><text x="495" y="93">1</text><text x="495" y="320">0</text><polyline points="520,94 541,109 562,111 583,118 604,139 625,158 646,173 667,194 688,207 709,220 730,230 751,239 772,247 793,254 814,260 835,265 856,270 877,274 898,278 919,282" class="c" stroke="#1677b3"/><polyline points="520,94 541,94 562,94 583,94 604,95 625,104 646,123 667,146 688,168 709,189 730,206 751,221 772,234 793,244 814,253 835,261 856,267 877,272 898,277 919,281" class="c d" stroke="#1677b3"/><polyline points="520,94 541,94 562,94 583,96 604,102 625,114 646,132 667,148 688,167 709,183 730,197 751,209 772,219 793,230 814,239 835,246 856,254 877,262 898,268 919,275" class="c" stroke="#e67e22"/><polyline points="520,94 541,94 562,94 583,94 604,94 625,94 646,95 667,98 688,107 709,122 730,141 751,162 772,183 793,203 814,220 835,234 856,247 877,257 898,266 919,274" class="c d" stroke="#e67e22"/><polyline points="520,94 541,94 562,94 583,94 604,95 625,99 646,108 667,121 688,137 709,152 730,167 751,180 772,193 793,206 814,217 835,229 856,239 877,250 898,260 919,269" class="c" stroke="#2a9d55"/><polyline points="520,94 541,94 562,94 583,94 604,94 625,94 646,94 667,94 688,94 709,96 730,102 751,115 772,134 793,157 814,182 835,205 856,226 877,243 898,257 919,269" class="c d" stroke="#2a9d55"/><text x="255" y="382" text-anchor="middle" class="p">cTCMV</text><path d="M45 390v235h420" fill="none" class="a"/><text x="45" y="641">0</text><text x="457" y="641">40</text><text x="20" y="398">1</text><text x="20" y="625">0</text><polyline points="45,399 66,399 87,399 108,413 129,440 150,465 171,483 192,499 213,510 234,520 255,528 276,534 297,541 318,546 339,551 360,555 381,559 402,563 423,566 444,569" class="c" stroke="#1677b3"/><polyline points="45,399 66,399 87,399 108,402 129,418 150,443 171,466 192,485 213,501 234,514 255,524 276,533 297,540 318,546 339,551 360,556 381,560 402,563 423,566 444,569" class="c d" stroke="#1677b3"/><polyline points="45,399 66,399 87,399 108,400 129,408 150,425 171,449 192,469 213,485 234,498 255,508 276,519 297,525 318,533 339,539 360,544 381,549 402,553 423,557 444,560" class="c" stroke="#e67e22"/><polyline points="45,399 66,399 87,399 108,399 129,405 150,420 171,439 192,459 213,476 234,491 255,504 276,514 297,523 318,531 339,537 360,543 381,548 402,552 423,556 444,559" class="c d" stroke="#e67e22"/><polyline points="45,399 66,399 87,399 108,399 129,403 150,414 171,432 192,450 213,467 234,482 255,495 276,506 297,515 318,524 339,530 360,536 381,542 402,546 423,550 444,553" class="c" stroke="#2a9d55"/><polyline points="45,399 66,399 87,399 108,399 129,401 150,409 171,425 192,443 213,460 234,476 255,490 276,502 297,512 318,521 339,528 360,535 381,541 402,546 423,550 444,554" class="c d" stroke="#2a9d55"/><text x="730" y="382" text-anchor="middle" class="p">dTCMV</text><path d="M520 390v235h420" fill="none" class="a"/><text x="520" y="641">0</text><text x="932" y="641">40</text><text x="495" y="398">1</text><text x="495" y="625">0</text><polyline points="520,399 541,401 562,460 583,479 604,491 625,500 646,507 667,513 688,518 709,522 730,525 751,526 772,526 793,525 814,521 835,509 856,501 877,492 898,480 919,465" class="c" stroke="#1677b3"/><polyline points="520,399 541,399 562,400 583,419 604,445 625,464 646,477 667,485 688,490 709,493 730,495 751,495 772,493 793,491 814,488 835,484 856,479 877,473 898,466 919,459" class="c d" stroke="#1677b3"/><polyline points="520,399 541,437 562,478 583,510 604,531 625,543 646,550 667,526 688,527 709,529 730,531 751,531 772,530 793,529 814,524 835,506 856,495 877,479 898,455 919,422" class="c" stroke="#e67e22"/><polyline points="520,399 541,399 562,428 583,467 604,488 625,499 646,505 667,508 688,508 709,507 730,504 751,500 772,495 793,488 814,480 835,470 856,459 877,446 898,431 919,413" class="c d" stroke="#e67e22"/><polyline points="520,399 541,554 562,540 583,549 604,562 625,568 646,569 667,569 688,565 709,554 730,541 751,538 772,537 793,534 814,530 835,509 856,494 877,469 898,431 919,399" class="c" stroke="#2a9d55"/><polyline points="520,399 541,499 562,533 583,542 604,545 625,544 646,543 667,540 688,536 709,530 730,524 751,517 772,508 793,498 814,485 835,470 856,453 877,431 898,406 919,399" class="c d" stroke="#2a9d55"/><path d="M330 660h35" stroke="#111" stroke-width="2"/><text x="372" y="664">Strict</text><path d="M520 660h35" stroke="#111" stroke-width="2" stroke-dasharray="7 5"/><text x="562" y="664">Clip</text></svg>