<svg xmlns="http://www.w3.org/2000/svg" viewBox="0 0 990 680"><style>text{font:12px Arial}.q{font-size:18px}.p{font-size:16px}.c{fill:none;stroke-width:2}.d{stroke-dasharray:7 5}.a{stroke:#777}</style><rect width="990" height="680" fill="white"/><text x="495" y="24" text-anchor="middle" class="q">Contribution-profile sensitivity</text><path d="M120 52h28" stroke="#1677b3" stroke-width="3"/><text x="154" y="56">Constant</text><path d="M370 52h28" stroke="#e67e22" stroke-width="3"/><text x="404" y="56">Linear</text><path d="M620 52h28" stroke="#2a9d55" stroke-width="3"/><text x="654" y="56">Quadratic</text><text x="255" y="77" text-anchor="middle" class="p">PCMV</text><path d="M45 85v235h420" fill="none" class="a"/><text x="45" y="336">0</text><text x="457" y="336">40</text><text x="20" y="93">1</text><text x="20" y="320">0</text><polyline points="45,94 66,94 87,94 108,94 129,96 150,103 171,116 192,130 213,144 234,158 255,170 276,181 297,191 318,201 339,209 360,218 381,224 402,231 423,238 444,244" class="c" stroke="#1677b3"/><polyline points="45,94 66,94 87,94 108,94 129,94 150,94 171,94 192,94 213,95 234,97 255,99 276,104 297,109 318,116 339,123 360,131 381,140 402,148 423,157 444,165" class="c d" stroke="#1677b3"/><polyline points="45,94 66,94 87,94 108,94 129,94 150,94 171,94 192,95 213,99 234,105 255,115 276,127 297,141 318,154 339,167 360,180 381,193 402,204 423,215 444,224" class="c" stroke="#e67e22"/><polyline points="45,94 66,94 87,94 108,94 129,94 150,94 171,94 192,94 213,94 234,94 255,94 276,94 297,94 318,95 339,97 360,100 381,104 402,110 423,117 444,126" class="c d" stroke="#e67e22"/><polyline points="45,94 66,94 87,94 108,94 129,94 150,94 171,94 192,94 213,94 234,94 255,95 276,99 297,106 318,117 339,130 360,147 381,164 402,182 423,198 444,213" class="c" stroke="#2a9d55"/><polyline points="45,94 66,94 87,94 108,94 129,94 150,94 171,94 192,94 213,94 234,94 255,94 276,94 297,94 318,94 339,94 360,95 381,95 402,97 423,101 444,107" class="c d" stroke="#2a9d55"/><text x="730" y="77" text-anchor="middle" class="p">DOMV</text><path d="M520 85v235h420" fill="none" class="a"/><text x="520" y="336">0</text><text x="932" y="336">40</text><text x="495" y="93">1</text><text x="495" y="320">0</text><polyline points="520,94 541,94 562,94 583,96 604,102 625,114 646,132 667,148 688,167 709,183 730,197 751,209 772,219 793,230 814,239 835,246 856,254 877,262 898,268 919,275" class="c" stroke="#1677b3"/><polyline points="520,94 541,94 562,94 583,94 604,94 625,94 646,95 667,98 688,107 709,122 730,141 751,162 772,183 793,203 814,220 835,234 856,247 877,257 898,266 919,274" class="c d" stroke="#1677b3"/><polyline points="520,94 541,94 562,94 583,94 604,94 625,95 646,97 667,100 688,107 709,117 730,132 751,148 772,166 793,183 814,200 835,214 856,228 877,241 898,253 919,263" class="c" stroke="#e67e22"/><polyline points="520,94 541,94 562,94 583,94 604,94 625,94 646,94 667,94 688,94 709,94 730,96 751,103 772,118 793,140 814,167 835,193 856,216 877,235 898,250 919,263" class="c d" stroke="#e67e22"/><polyline points="520,94 541,94 562,94 583,94 604,94 625,94 646,94 667,94 688,95 709,99 730,105 751,112 772,125 793,141 814,161 835,182 856,202 877,222 898,239 919,254" class="c" stroke="#2a9d55"/><polyline points="520,94 541,94 562,94 583,94 604,94 625,94 646,94 667,94 688,94 709,94 730,94 751,94 772,96 793,102 814,120 835,148 856,181 877,211 898,235 919,253" class="c d" stroke="#2a9d55"/><text x="255" y="382" text-anchor="middle" class="p">cTCMV</text><path d="M45 390v235h420" fill="none" class="a"/><text x="45" y="641">0</text><text x="457" y="641">40</text><text x="20" y="398">1</text><text x="20" y="625">0</text><polyline points="45,399 66,399 87,399 108,400 129,408 150,425 171,449 192,469 213,485 234,498 255,508 276,519 297,525 318,533 339,539 360,544 381,549 402,553 423,557 444,560" class="c" stroke="#1677b3"/><polyline points="45,399 66,399 87,399 108,399 129,405 150,420 171,439 192,459 213,476 234,491 255,504 276,514 297,523 318,531 339,537 360,543 381,548 402,552 423,556 444,559" class="c d" stroke="#1677b3"/><polyline points="45,399 66,399 87,399 108,399 129,399 150,399 171,399 192,400 213,403 234,409 255,422 276,438 297,456 318,474 339,491 360,505 381,517 402,527 423,536 444,544" class="c" stroke="#e67e22"/><polyline points="45,399 66,399 87,399 108,399 129,399 150,399 171,399 192,399 213,402 234,409 255,421 276,437 297,455 318,473 339,489 360,504 381,517 402,528 423,537 444,545" class="c d" stroke="#e67e22"/><polyline points="45,399 66,399 87,399 108,399 129,399 150,399 171,399 192,399 213,399 234,399 255,400 276,402 297,410 318,423 339,443 360,465 381,486 402,504 423,518 444,530" class="c" stroke="#2a9d55"/><polyline points="45,399 66,399 87,399 108,399 129,399 150,399 171,399 192,399 213,399 234,399 255,400 276,402 297,408 318,420 339,439 360,460 381,482 402,502 423,519 444,533" class="c d" stroke="#2a9d55"/><text x="730" y="382" text-anchor="middle" class="p">dTCMV</text><path d="M520 390v235h420" fill="none" class="a"/><text x="520" y="641">0</text><text x="932" y="641">40</text><text x="495" y="398">1</text><text x="495" y="625">0</text><polyline points="520,399 541,437 562,478 583,510 604,531 625,543 646,550 667,526 688,527 709,529 730,531 751,531 772,530 793,529 814,524 835,506 856,495 877,479 898,455 919,422" class="c" stroke="#1677b3"/><polyline points="520,399 541,399 562,428 583,467 604,488 625,499 646,505 667,508 688,508 709,507 730,504 751,500 772,495 793,488 814,480 835,470 856,459 877,446 898,431 919,413" class="c d" stroke="#1677b3"/><polyline points="520,399 541,399 562,399 583,402 604,400 625,405 646,425 667,442 688,457 709,469 730,479 751,486 772,490 793,488 814,478 835,475 856,472 877,460 898,441 919,412" class="c" stroke="#e67e22"/><polyline points="520,399 541,399 562,399 583,399 604,399 625,399 646,401 667,405 688,412 709,419 730,426 751,431 772,435 793,437 814,437 835,435 856,431 877,425 898,417 919,406" class="c d" stroke="#e67e22"/><polyline points="520,399 541,399 562,399 583,399 604,399 625,399 646,399 667,400 688,403 709,410 730,421 751,426 772,425 793,429 814,438 835,445 856,441 877,435 898,429 919,409" class="c" stroke="#2a9d55"/><polyline points="520,399 541,399 562,399 583,399 604,399 625,399 646,399 667,399 688,399 709,399 730,400 751,400 772,402 793,404 814,406 835,407 856,408 877,408 898,405 919,401" class="c d" stroke="#2a9d55"/><path d="M330 660h35" stroke="#111" stroke-width="2"/><text x="372" y="664">Strict</text><path d="M520 660h35" stroke="#111" stroke-width="2" stroke-dasharray="7 5"/><text x="562" y="664">Clip</text></svg>