<svg xmlns="http://www.w3.org/2000/svg" viewBox="0 0 990 680"><style>text{font:12px Arial}.q{font-size:18px}.p{font-size:16px}.c{fill:none;stroke-width:2}.d{stroke-dasharray:7 5}.a{stroke:#777}</style><rect width="990" height="680" fill="white"/><text x="495" y="24" text-anchor="middle" class="q">Sensitivity to sigma</text><path d="M120 52h28" stroke="#1677b3" stroke-width="3"/><text x="154" y="56">sigma=.14</text><path d="M370 52h28" stroke="#e67e22" stroke-width="3"/><text x="404" y="56">Baseline</text><path d="M620 52h28" stroke="#2a9d55" stroke-width="3"/><text x="654" y="56">sigma=.22</text><text x="255" y="77" text-anchor="middle" class="p">PCMV</text><path d="M45 85v235h420" fill="none" class="a"/><text x="45" y="336">0</text><text x="457" y="336">40</text><text x="20" y="93">1</text><text x="20" y="320">0</text><polyline points="45,94 66,94 87,94 108,94 129,94 150,95 171,97 192,102 213,110 234,121 255,133 276,144 297,156 318,167 339,178 360,189 381,197 402,208 423,218 444,226" class="c" stroke="#1677b3"/><polyline points="45,94 66,94 87,94 108,94 129,94 150,94 171,94 192,94 213,94 234,94 255,94 276,94 297,94 318,94 339,94 360,94 381,94 402,94 423,94 444,94" class="c d" stroke="#1677b3"/><polyline points="45,94 66,94 87,94 108,94 129,96 150,103 171,116 192,130 213,144 234,158 255,170 276,181 297,191 318,201 339,209 360,218 381,224 402,231 423,238 444,244" class="c" stroke="#e67e22"/><polyline points="45,94 66,94 87,94 108,94 129,94 150,94 171,94 192,94 213,95 234,97 255,99 276,104 297,109 318,116 339,123 360,131 381,140 402,148 423,157 444,165" class="c d" stroke="#e67e22"/><polyline points="45,94 66,94 87,94 108,98 129,111 150,129 171,147 192,163 213,177 234,189 255,200 276,210 297,218 318,226 339,232 360,238 381,244 402,249 423,254 444,257" class="c" stroke="#2a9d55"/><polyline points="45,94 66,94 87,94 108,94 129,94 150,96 171,101 192,109 213,119 234,130 255,142 276,153 297,164 318,175 339,185 360,194 381,202 402,210 423,217 444,224" class="c d" stroke="#2a9d55"/><text x="730" y="77" text-anchor="middle" class="p">DOMV</text><path d="M520 85v235h420" fill="none" class="a"/><text x="520" y="336">0</text><text x="932" y="336">40</text><text x="495" y="93">1</text><text x="495" y="320">0</text><polyline points="520,94 541,94 562,94 583,94 604,94 625,94 646,96 667,102 688,110 709,122 730,134 751,148 772,163 793,176 814,190 835,204 856,215 877,228 898,240 919,252" class="c" stroke="#1677b3"/><polyline points="520,94 541,94 562,94 583,94 604,94 625,94 646,94 667,94 688,94 709,94 730,94 751,97 772,104 793,118 814,139 835,165 856,191 877,214 898,234 919,251" class="c d" stroke="#1677b3"/><polyline points="520,94 541,94 562,94 583,96 604,102 625,114 646,132 667,148 688,167 709,183 730,197 751,209 772,219 793,230 814,239 835,246 856,254 877,262 898,268 919,275" class="c" stroke="#e67e22"/><polyline points="520,94 541,94 562,94 583,94 604,94 625,94 646,95 667,98 688,107 709,122 730,141 751,162 772,183 793,203 814,220 835,234 856,247 877,257 898,266 919,274" class="c d" stroke="#e67e22"/><polyline points="520,94 541,94 562,97 583,113 604,137 625,163 646,184 667,201 688,216 709,227 730,238 751,246 772,254 793,260 814,266 835,271 856,276 877,280 898,285 919,288" class="c" stroke="#2a9d55"/><polyline points="520,94 541,94 562,94 583,94 604,96 625,107 646,127 667,150 688,172 709,193 730,211 751,226 772,239 793,250 814,259 835,266 856,272 877,278 898,283 919,287" class="c d" stroke="#2a9d55"/><text x="255" y="382" text-anchor="middle" class="p">cTCMV</text><path d="M45 390v235h420" fill="none" class="a"/><text x="45" y="641">0</text><text x="457" y="641">40</text><text x="20" y="398">1</text><text x="20" y="625">0</text><polyline points="45,399 66,399 87,399 108,399 129,399 150,400 171,405 192,413 213,427 234,442 255,456 276,469 297,480 318,490 339,499 360,506 381,513 402,519 423,525 444,531" class="c" stroke="#1677b3"/><polyline points="45,399 66,399 87,399 108,399 129,399 150,400 171,404 192,412 213,424 234,438 255,452 276,465 297,477 318,488 339,498 360,506 381,513 402,520 423,526 444,531" class="c d" stroke="#1677b3"/><polyline points="45,399 66,399 87,399 108,400 129,408 150,425 171,449 192,469 213,485 234,498 255,508 276,519 297,525 318,533 339,539 360,544 381,549 402,553 423,557 444,560" class="c" stroke="#e67e22"/><polyline points="45,399 66,399 87,399 108,399 129,405 150,420 171,439 192,459 213,476 234,491 255,504 276,514 297,523 318,531 339,537 360,543 381,548 402,552 423,556 444,559" class="c d" stroke="#e67e22"/><polyline points="45,399 66,399 87,399 108,415 129,446 150,475 171,496 192,512 213,525 234,534 255,542 276,549 297,555 318,560 339,564 360,567 381,570 402,572 423,574 444,576" class="c" stroke="#2a9d55"/><polyline points="45,399 66,399 87,399 108,409 129,434 150,461 171,484 192,502 213,516 234,528 255,537 276,545 297,551 318,557 339,561 360,565 381,569 402,572 423,574 444,577" class="c d" stroke="#2a9d55"/><text x="730" y="382" text-anchor="middle" class="p">dTCMV</text><path d="M520 390v235h420" fill="none" class="a"/><text x="520" y="641">0</text><text x="932" y="641">40</text><text x="495" y="398">1</text><text x="495" y="625">0</text><polyline points="520,399 541,520 562,471 583,513 604,539 625,550 646,555 667,557 688,551 709,529 730,510 751,509 772,507 793,504 814,478 835,454 856,429 877,399 898,399 919,399" class="c" stroke="#1677b3"/><polyline points="520,399 541,502 562,526 583,531 604,532 625,530 646,526 667,521 688,515 709,508 730,500 751,490 772,478 793,464 814,447 835,427 856,406 877,399 898,399 919,399" class="c d" stroke="#1677b3"/><polyline points="520,399 541,437 562,478 583,510 604,531 625,543 646,550 667,526 688,527 709,529 730,531 751,531 772,530 793,529 814,524 835,506 856,495 877,479 898,455 919,422" class="c" stroke="#e67e22"/><polyline points="520,399 541,399 562,428 583,467 604,488 625,499 646,505 667,508 688,508 709,507 730,504 751,500 772,495 793,488 814,480 835,470 856,459 877,446 898,431 919,413" class="c d" stroke="#e67e22"/><polyline points="520,399 541,427 562,497 583,519 604,529 625,535 646,539 667,542 688,543 709,544 730,545 751,544 772,543 793,540 814,535 835,529 856,521 877,512 898,500 919,483" class="c" stroke="#2a9d55"/><polyline points="520,399 541,399 562,417 583,457 604,483 625,499 646,508 667,514 688,518 709,519 730,519 751,518 772,516 793,514 814,510 835,505 856,500 877,494 898,486 919,478" class="c d" stroke="#2a9d55"/><path d="M330 660h35" stroke="#111" stroke-width="2"/><text x="372" y="664">Strict</text><path d="M520 660h35" stroke="#111" stroke-width="2" stroke-dasharray="7 5"/><text x="562" y="664">Clip</text></svg>